<svg width="26" height="26" viewBox="0 0 26 26" fill="none" xmlns="http://www.w3.org/2000/svg">
<path fill-rule="evenodd" clip-rule="evenodd" d="M13.1625 0.324951C6.3281 0.324951 0.787476 5.86558 0.787476 12.7C0.787476 19.5343 6.3281 25.075 13.1625 25.075C19.9969 25.075 25.5375 19.5343 25.5375 12.7C25.5375 5.86558 19.9969 0.324951 13.1625 0.324951ZM17.3329 10.1203C17.5378 9.90815 17.6512 9.62397 17.6486 9.329C17.646 9.03403 17.5277 8.75187 17.3191 8.54328C17.1106 8.3347 16.8284 8.21638 16.5334 8.21382C16.2385 8.21126 15.9543 8.32465 15.7421 8.52958L13.1625 11.1092L10.5829 8.52958C10.4791 8.42213 10.3549 8.33642 10.2177 8.27746C10.0804 8.2185 9.9328 8.18747 9.78343 8.18617C9.63405 8.18487 9.48591 8.21334 9.34765 8.2699C9.20939 8.32647 9.08379 8.41 8.97816 8.51563C8.87253 8.62126 8.78899 8.74687 8.73243 8.88513C8.67586 9.02339 8.6474 9.17153 8.64869 9.3209C8.64999 9.47028 8.68103 9.6179 8.73999 9.75516C8.79895 9.89241 8.88465 10.0165 8.9921 10.1203L11.5717 12.7L8.9921 15.2796C8.88465 15.3834 8.79895 15.5075 8.73999 15.6447C8.68103 15.782 8.64999 15.9296 8.64869 16.079C8.6474 16.2284 8.67586 16.3765 8.73243 16.5148C8.78899 16.653 8.87253 16.7786 8.97816 16.8843C9.08379 16.9899 9.20939 17.0734 9.34765 17.13C9.48591 17.1866 9.63405 17.215 9.78343 17.2137C9.9328 17.2124 10.0804 17.1814 10.2177 17.1224C10.3549 17.0635 10.4791 16.9778 10.5829 16.8703L13.1625 14.2907L15.7421 16.8703C15.9543 17.0753 16.2385 17.1886 16.5334 17.1861C16.8284 17.1835 17.1106 17.0652 17.3191 16.8566C17.5277 16.648 17.646 16.3659 17.6486 16.0709C17.6512 15.7759 17.5378 15.4918 17.3329 15.2796L14.7532 12.7L17.3329 10.1203Z" fill="#B19470"/>
</svg>
