<svg width="26" height="31" viewBox="0 0 26 31" fill="none" xmlns="http://www.w3.org/2000/svg">
<rect width="26" height="31" fill="#43766C"/>
<path d="M22.9052 8.85717H9.28618M6.80999 8.85717H3.0957M22.9052 23.6191H9.28618M6.80999 23.6191H3.0957M16.7148 16.2381H3.0957M22.9052 16.2381H19.1909M8.04808 5.90479C8.37645 5.90479 8.69136 6.06031 8.92355 6.33715C9.15574 6.61399 9.28618 6.98947 9.28618 7.38098V10.3334C9.28618 10.7249 9.15574 11.1003 8.92355 11.3772C8.69136 11.654 8.37645 11.8095 8.04808 11.8095C7.71972 11.8095 7.40481 11.654 7.17262 11.3772C6.94043 11.1003 6.80999 10.7249 6.80999 10.3334V7.38098C6.80999 6.98947 6.94043 6.61399 7.17262 6.33715C7.40481 6.06031 7.71972 5.90479 8.04808 5.90479V5.90479ZM8.04808 20.6667C8.37645 20.6667 8.69136 20.8222 8.92355 21.0991C9.15574 21.3759 9.28618 21.7514 9.28618 22.1429V25.0953C9.28618 25.4868 9.15574 25.8622 8.92355 26.1391C8.69136 26.4159 8.37645 26.5715 8.04808 26.5715C7.71972 26.5715 7.40481 26.4159 7.17262 26.1391C6.94043 25.8622 6.80999 25.4868 6.80999 25.0953V22.1429C6.80999 21.7514 6.94043 21.3759 7.17262 21.0991C7.40481 20.8222 7.71972 20.6667 8.04808 20.6667ZM17.9528 13.2857C18.2812 13.2857 18.5961 13.4413 18.8283 13.7181C19.0605 13.9949 19.1909 14.3704 19.1909 14.7619V17.7143C19.1909 18.1058 19.0605 18.4813 18.8283 18.7581C18.5961 19.035 18.2812 19.1905 17.9528 19.1905C17.6245 19.1905 17.3096 19.035 17.0774 18.7581C16.8452 18.4813 16.7148 18.1058 16.7148 17.7143V14.7619C16.7148 14.3704 16.8452 13.9949 17.0774 13.7181C17.3096 13.4413 17.6245 13.2857 17.9528 13.2857V13.2857Z" stroke="#F0DEC7" stroke-linecap="round" stroke-linejoin="round"/>
</svg>
