<svg width="17" height="17" viewBox="0 0 17 17" fill="none" xmlns="http://www.w3.org/2000/svg">
<path d="M12.502 10.6822C11.9766 10.6822 11.502 10.8889 11.146 11.2202L6.44195 8.48221C6.47529 8.32888 6.50195 8.17554 6.50195 8.01554C6.50195 7.85554 6.47529 7.70221 6.44195 7.54888L11.142 4.80888C11.502 5.14221 11.9753 5.34888 12.502 5.34888C13.6086 5.34888 14.502 4.45554 14.502 3.34888C14.502 2.24221 13.6086 1.34888 12.502 1.34888C11.3953 1.34888 10.502 2.24221 10.502 3.34888C10.502 3.50888 10.5286 3.66221 10.562 3.81554L5.86195 6.55554C5.50195 6.22221 5.02862 6.01554 4.50195 6.01554C3.39529 6.01554 2.50195 6.90888 2.50195 8.01554C2.50195 9.12221 3.39529 10.0155 4.50195 10.0155C5.02862 10.0155 5.50195 9.80888 5.86195 9.47554L10.5606 12.2209C10.5231 12.3718 10.5034 12.5267 10.502 12.6822C10.502 13.0778 10.6193 13.4645 10.839 13.7933C11.0588 14.1222 11.3711 14.3786 11.7366 14.53C12.102 14.6813 12.5042 14.721 12.8921 14.6438C13.2801 14.5666 13.6365 14.3761 13.9162 14.0964C14.1959 13.8167 14.3864 13.4604 14.4635 13.0724C14.5407 12.6844 14.5011 12.2823 14.3497 11.9168C14.1983 11.5514 13.942 11.239 13.6131 11.0193C13.2842 10.7995 12.8975 10.6822 12.502 10.6822Z" fill="#F5E9DA"/>
</svg>
